<svg width="111" height="30" viewBox="0 0 111 30" fill="none" xmlns="http://www.w3.org/2000/svg">
<g clip-path="url(#clip0_3_1235)">
<path fill-rule="evenodd" clip-rule="evenodd" d="M74.857 24.5355C75.646 23.8245 76.039 22.9035 76.039 21.7715C76.039 20.8515 75.77 20.0805 75.231 19.4645C74.69 18.8465 73.849 18.3075 72.704 17.8465C71.768 17.4775 71.123 17.1355 70.768 16.8195C70.36 16.4775 70.157 16.0425 70.157 15.5165C70.157 15.0415 70.335 14.6405 70.69 14.3115C71.11 13.9435 71.696 13.7585 72.446 13.7585C73.395 13.7585 74.243 13.9625 74.993 14.3705L75.526 12.6325C74.723 12.2115 73.717 12.0005 72.506 12.0005C71.148 12.0005 70.062 12.3495 69.248 13.0485C68.431 13.7465 68.023 14.6435 68.023 15.7375C68.023 17.4115 69.187 18.6845 71.517 19.5535C72.373 19.8705 72.986 20.2135 73.353 20.5825C73.722 20.9515 73.906 21.4065 73.906 21.9465C73.906 22.5525 73.683 23.0385 73.236 23.4005C72.787 23.7625 72.162 23.9445 71.359 23.9445C70.24 23.9445 69.213 23.6605 68.277 23.0945L67.783 24.8715C68.652 25.4245 69.8 25.7005 71.232 25.7005C72.783 25.7005 73.99 25.3125 74.857 24.5355ZM41.645 25.5035H39.374L38.13 21.5945H33.806L32.621 25.5035H30.41L34.694 12.1955H37.34L41.645 25.5035ZM37.755 19.9545L36.63 16.4795C36.511 16.1245 36.288 15.2885 35.959 13.9725H35.919C35.788 14.5385 35.577 15.3745 35.287 16.4795L34.182 19.9545H37.755ZM51.339 24.4565C52.221 23.5095 52.662 22.2195 52.662 20.5875C52.662 19.1265 52.284 17.9485 51.526 17.0525C50.77 16.1575 49.825 15.7105 48.693 15.7105C47.245 15.7105 46.166 16.2825 45.455 17.4285H45.415L45.296 15.9075H43.421C43.473 16.9875 43.5 18.0405 43.5 19.0665V29.4135H45.632V24.3585H45.672C46.225 25.2665 47.133 25.7205 48.397 25.7205C49.568 25.7205 50.549 25.2995 51.339 24.4565ZM50.49 20.6655C50.49 19.7315 50.28 18.9615 49.858 18.3555C49.397 17.7235 48.778 17.4075 48.002 17.4075C47.476 17.4075 46.998 17.5835 46.571 17.9305C46.143 18.2805 45.863 18.7375 45.732 19.3035C45.666 19.5675 45.633 19.7835 45.633 19.9535V21.5535C45.633 22.2515 45.847 22.8405 46.275 23.3215C46.703 23.8025 47.259 24.0425 47.943 24.0425C48.746 24.0425 49.371 23.7325 49.818 23.1145C50.266 22.4955 50.49 21.6795 50.49 20.6655ZM62.375 24.4565C63.258 23.5095 63.699 22.2195 63.699 20.5875C63.699 19.1265 63.32 17.9485 62.565 17.0525C61.807 16.1575 60.862 15.7105 59.731 15.7105C58.282 15.7105 57.203 16.2825 56.493 17.4285H56.453L56.334 15.9075H54.459C54.511 16.9875 54.538 18.0405 54.538 19.0665V29.4135H56.67V24.3585H56.71C57.262 25.2665 58.17 25.7205 59.434 25.7205C60.605 25.7205 61.586 25.2995 62.375 24.4565ZM61.527 20.6655C61.527 19.7315 61.316 18.9615 60.894 18.3555C60.433 17.7235 59.816 17.4075 59.039 17.4075C58.512 17.4075 58.035 17.5835 57.607 17.9305C57.179 18.2805 56.9 18.7375 56.769 19.3035C56.704 19.5675 56.67 19.7835 56.67 19.9535V21.5535C56.67 22.2515 56.884 22.8405 57.31 23.3215C57.738 23.8015 58.294 24.0425 58.98 24.0425C59.783 24.0425 60.408 23.7325 60.855 23.1145C61.303 22.4955 61.527 21.6795 61.527 20.6655ZM83.088 17.5075H80.738V22.1665C80.738 23.3515 81.152 23.9435 81.982 23.9435C82.363 23.9435 82.679 23.9105 82.929 23.8445L82.988 25.4635C82.568 25.6205 82.015 25.6995 81.33 25.6995C80.488 25.6995 79.83 25.4425 79.355 24.9295C78.882 24.4155 78.644 23.5535 78.644 22.3425V17.5055H77.244V15.9055H78.644V14.1485L80.738 13.5165V15.9055H83.088V17.5075ZM92.427 24.2595C93.269 23.3125 93.691 22.1015 93.691 20.6265C93.691 19.1915 93.283 18.0205 92.465 17.1135C91.61 16.1785 90.477 15.7115 89.069 15.7115C87.608 15.7115 86.446 16.1855 85.585 17.1335C84.722 18.0805 84.292 19.2985 84.292 20.7855C84.292 22.2065 84.71 23.3855 85.546 24.3195C86.382 25.2535 87.503 25.7205 88.911 25.7205C90.372 25.7205 91.544 25.2345 92.427 24.2595ZM91.479 20.6955C91.479 19.8105 91.29 19.0515 90.907 18.4185C90.46 17.6525 89.821 17.2705 88.993 17.2705C88.136 17.2705 87.485 17.6535 87.038 18.4185C86.655 19.0525 86.466 19.8235 86.466 20.7355C86.466 21.6205 86.655 22.3795 87.038 23.0115C87.499 23.7775 88.143 24.1595 88.974 24.1595C89.788 24.1595 90.427 23.7695 90.888 22.9915C91.281 22.3465 91.479 21.5795 91.479 20.6955ZM99.949 17.7235C100.185 17.7235 100.41 17.7435 100.621 17.7825V15.7495C100.463 15.7245 100.285 15.7105 100.088 15.7105C99.535 15.7105 99.022 15.8815 98.547 16.2245C98.061 16.6055 97.706 17.1135 97.481 17.7445H97.422L97.344 15.9085H95.487C95.54 16.8165 95.567 17.8235 95.567 18.9295L95.547 25.5035H97.678V20.4685C97.678 19.7055 97.856 19.0735 98.211 18.5735C98.619 18.0065 99.199 17.7235 99.949 17.7235ZM110.156 20.2515C110.156 20.6335 110.131 20.9555 110.078 21.2185H103.682C103.707 22.1665 104.016 22.8915 104.61 23.3915C105.149 23.8385 105.846 24.0625 106.702 24.0625C107.649 24.0625 108.513 23.9115 109.29 23.6085L109.624 25.0885C108.716 25.4845 107.644 25.6815 106.407 25.6815C104.919 25.6815 103.751 25.2435 102.901 24.3685C102.053 23.4935 101.628 22.3185 101.628 20.8445C101.628 19.3975 102.023 18.1925 102.814 17.2315C103.642 16.2055 104.761 15.6925 106.169 15.6925C107.552 15.6925 108.599 16.2055 109.31 17.2315C109.873 18.0465 110.156 19.0545 110.156 20.2515ZM107.709 18.0595C107.998 18.5205 108.137 19.0665 108.123 19.6985V19.6975H103.682C103.747 19.0535 103.958 18.5005 104.313 18.0395C104.746 17.4595 105.313 17.1705 106.01 17.1705C106.773 17.1705 107.34 17.4665 107.709 18.0595Z" fill="#63686B"/>
<path fill-rule="evenodd" clip-rule="evenodd" d="M59.088 7.43254H58.041V0.555542H59.088V7.43254ZM35.992 6.66654C36.697 6.07154 37.05 5.18554 37.05 4.00854C37.05 2.96054 36.723 2.15554 36.071 1.59254C35.489 1.09454 34.626 0.845542 33.481 0.845542C32.833 0.845542 32.233 0.891542 31.676 0.981542V7.41254C32.103 7.46454 32.613 7.49054 33.209 7.49054C34.411 7.49054 35.339 7.21554 35.992 6.66654ZM35.339 2.28154C35.743 2.68954 35.945 3.27454 35.945 4.03754C35.945 4.89154 35.725 5.54154 35.289 5.98754C34.853 6.43354 34.234 6.65654 33.432 6.65654C33.089 6.65654 32.853 6.64754 32.724 6.62754V1.73854C32.957 1.69254 33.238 1.67054 33.568 1.67054C34.345 1.67054 34.935 1.87454 35.339 2.28154ZM42.909 5.03654C42.909 5.76154 42.702 6.35554 42.288 6.82154C41.854 7.30054 41.279 7.53954 40.561 7.53954C39.869 7.53954 39.318 7.31054 38.907 6.85054C38.497 6.39154 38.292 5.81254 38.292 5.11454C38.292 4.38454 38.503 3.78554 38.927 3.32054C39.351 2.85554 39.921 2.62254 40.639 2.62254C41.331 2.62254 41.887 2.85154 42.308 3.31054C42.708 3.75654 42.909 4.33254 42.909 5.03654ZM41.541 3.95154C41.728 4.26254 41.822 4.63554 41.822 5.07054C41.822 5.50554 41.725 5.88154 41.531 6.19854C41.305 6.58154 40.991 6.77254 40.591 6.77254C40.183 6.77254 39.867 6.58454 39.64 6.20854C39.453 5.89754 39.359 5.52454 39.359 5.08954C39.359 4.64154 39.452 4.26254 39.64 3.95154C39.86 3.57554 40.18 3.38754 40.601 3.38754C41.008 3.38754 41.321 3.57554 41.541 3.95154ZM50.765 2.71854L50.7647 2.71954H49.736L49.164 4.92154C49.022 5.47154 48.915 5.98854 48.844 6.47354H48.815C48.718 5.97554 48.592 5.45854 48.437 4.92154L47.796 2.71954H46.942L46.273 4.96954C46.091 5.57654 45.962 6.07854 45.884 6.47254H45.865C45.78 5.99454 45.674 5.48954 45.545 4.95954L45.012 2.71854H43.935L45.322 7.43254H46.293L46.942 5.38554C47.104 4.88754 47.23 4.38054 47.321 3.86254H47.34C47.438 4.36654 47.564 4.87454 47.719 5.38554L48.33 7.43254H49.29L50.7647 2.71954H50.765V2.71854ZM55.15 7.43254H56.198V4.60854C56.198 3.91654 56.017 3.39554 55.655 3.04654C55.364 2.76154 54.998 2.61954 54.558 2.61954C54.21 2.61954 53.892 2.70854 53.608 2.88454C53.369 3.03554 53.187 3.22454 53.065 3.45354H53.036L52.987 2.71654H52.066C52.091 3.20254 52.104 3.65154 52.104 4.06554V7.43154H53.152V4.63554C53.152 4.32654 53.25 4.05654 53.443 3.82754C53.638 3.59854 53.889 3.48454 54.2 3.48454C54.834 3.48454 55.15 3.90054 55.15 4.73254V7.43254ZM64.637 6.82154C65.051 6.35554 65.258 5.76154 65.258 5.03654C65.258 4.33254 65.057 3.75654 64.657 3.31054C64.235 2.85154 63.68 2.62254 62.987 2.62254C62.27 2.62254 61.7 2.85554 61.276 3.32054C60.852 3.78554 60.641 4.38454 60.641 5.11454C60.641 5.81254 60.846 6.39154 61.256 6.85054C61.666 7.31054 62.217 7.53954 62.91 7.53954C63.627 7.53954 64.203 7.30054 64.637 6.82154ZM64.17 5.07054C64.17 4.63554 64.076 4.26254 63.889 3.95154C63.67 3.57554 63.356 3.38754 62.95 3.38754C62.528 3.38754 62.208 3.57554 61.989 3.95154C61.801 4.26254 61.708 4.64154 61.708 5.08954C61.708 5.52454 61.802 5.89754 61.989 6.20854C62.216 6.58454 62.532 6.77254 62.94 6.77254C63.34 6.77254 63.653 6.58154 63.879 6.19854C64.074 5.88154 64.17 5.50554 64.17 5.07054ZM69.389 7.43254H70.33C70.285 7.15454 70.262 6.77954 70.262 6.30854V4.57254C70.262 3.27254 69.644 2.62254 68.412 2.62254C67.774 2.62254 67.233 2.75854 66.795 3.02954L67.008 3.71754C67.362 3.48554 67.772 3.36854 68.237 3.36854C68.89 3.36854 69.216 3.67854 69.216 4.29954V4.38754C68.343 4.38054 67.665 4.52954 67.183 4.83354C66.7 5.13754 66.46 5.57654 66.46 6.15254C66.46 6.53354 66.583 6.85454 66.829 7.11254C67.1 7.39654 67.46 7.53954 67.905 7.53954C68.501 7.53954 68.96 7.32254 69.282 6.88954H69.311L69.389 7.43254ZM69.242 5.81254V5.08554C68.086 5.06554 67.508 5.38254 67.508 6.03554C67.508 6.28154 67.574 6.46554 67.709 6.58854C67.844 6.71154 68.016 6.77254 68.221 6.77254C68.451 6.77254 68.666 6.69954 68.862 6.55454C69.059 6.40854 69.18 6.22354 69.225 5.99654C69.236 5.94554 69.242 5.88354 69.242 5.81254ZM75.355 7.43254H76.285C76.26 7.04454 76.248 6.62154 76.248 6.16254V0.555542H75.199V3.26154H75.179C74.927 2.83454 74.484 2.62154 73.851 2.62154C73.275 2.62154 72.791 2.84154 72.396 3.28154C71.988 3.75354 71.785 4.37154 71.785 5.13454C71.785 5.84554 71.972 6.42454 72.347 6.87054C72.722 7.31654 73.195 7.53954 73.763 7.53954C74.474 7.53954 74.98 7.25154 75.277 6.67554H75.306L75.355 7.43254ZM75.199 5.44454V4.65854C75.199 4.52254 75.189 4.41254 75.17 4.32854C75.111 4.07654 74.984 3.86454 74.791 3.69354C74.596 3.52254 74.361 3.43654 74.09 3.43654C73.699 3.43654 73.393 3.59154 73.168 3.90254C72.945 4.21354 72.832 4.61054 72.832 5.09554C72.832 5.56154 72.939 5.93954 73.154 6.23054C73.381 6.54054 73.687 6.69554 74.07 6.69554C74.414 6.69554 74.689 6.56654 74.898 6.30754C75.1 6.06854 75.199 5.78054 75.199 5.44454ZM84.627 6.82154C85.041 6.35554 85.248 5.76154 85.248 5.03654C85.248 4.33254 85.047 3.75654 84.647 3.31054C84.227 2.85154 83.67 2.62254 82.979 2.62254C82.26 2.62254 81.69 2.85554 81.266 3.32054C80.842 3.78554 80.631 4.38454 80.631 5.11454C80.631 5.81254 80.836 6.39154 81.246 6.85054C81.658 7.31054 82.209 7.53954 82.9 7.53954C83.619 7.53954 84.193 7.30054 84.627 6.82154ZM84.162 5.07054C84.162 4.63554 84.068 4.26254 83.881 3.95154C83.66 3.57554 83.348 3.38754 82.94 3.38754C82.52 3.38754 82.2 3.57554 81.979 3.95154C81.791 4.26254 81.698 4.64154 81.698 5.08954C81.698 5.52454 81.792 5.89754 81.979 6.20854C82.206 6.58454 82.522 6.77254 82.93 6.77254C83.33 6.77254 83.645 6.58154 83.871 6.19854C84.064 5.88154 84.162 5.50554 84.162 5.07054ZM89.836 7.43254H90.883V4.60854C90.883 3.91654 90.703 3.39554 90.34 3.04654C90.049 2.76154 89.683 2.61954 89.244 2.61954C88.895 2.61954 88.578 2.70854 88.293 2.88454C88.055 3.03554 87.873 3.22454 87.75 3.45354H87.721L87.672 2.71654H86.752C86.777 3.20254 86.789 3.65154 86.789 4.06554V7.43154H87.838V4.63554C87.838 4.32654 87.935 4.05654 88.129 3.82754C88.323 3.59854 88.574 3.48454 88.885 3.48454C89.52 3.48454 89.836 3.90054 89.836 4.73254V7.43254ZM97.935 3.50354H96.782V5.79354C96.782 6.37554 96.987 6.66654 97.393 6.66654C97.581 6.66654 97.737 6.65054 97.86 6.61754L97.887 7.41254C97.68 7.49054 97.408 7.52954 97.073 7.52954C96.659 7.52954 96.337 7.40354 96.104 7.15154C95.87 6.89954 95.754 6.47554 95.754 5.88054V3.50354H95.065V2.71854H95.754V1.85454L96.781 1.54454V2.71754H97.935V3.50354ZM102.435 7.43254H103.484V4.62954C103.484 3.93154 103.306 3.40354 102.951 3.04854C102.666 2.76354 102.307 2.62154 101.873 2.62154C101.26 2.62154 100.787 2.87954 100.457 3.39654H100.437V0.555542H99.39V7.43154H100.437V4.59654C100.437 4.44854 100.455 4.32254 100.486 4.21954C100.668 3.72954 101 3.48454 101.486 3.48454C102.119 3.48454 102.435 3.90754 102.435 4.75254V7.43254ZM109.207 4.85254C109.207 5.04054 109.193 5.19854 109.168 5.32754H106.025C106.039 5.79354 106.189 6.14854 106.48 6.39454C106.746 6.61454 107.089 6.72454 107.509 6.72454C107.974 6.72454 108.398 6.65054 108.78 6.50154L108.944 7.22954C108.497 7.42354 107.971 7.52054 107.362 7.52054C106.632 7.52054 106.057 7.30554 105.641 6.87554C105.223 6.44554 105.016 5.86854 105.016 5.14454C105.016 4.43354 105.209 3.84154 105.598 3.36954C106.004 2.86554 106.553 2.61354 107.246 2.61354C107.924 2.61354 108.439 2.86554 108.787 3.36954C109.068 3.76954 109.207 4.26454 109.207 4.85254ZM108.004 3.77654C108.146 4.00254 108.215 4.27054 108.207 4.58154H106.025C106.059 4.26454 106.162 3.99354 106.336 3.76654C106.549 3.48154 106.828 3.33954 107.17 3.33954C107.545 3.33954 107.822 3.48554 108.004 3.77654Z" fill="#63686B"/>
<g clip-path="url(#clip1_3_1235)">
<path d="M19.0781 25.9995H4.92188C2.20795 25.9995 0 23.7916 0 21.0776V6.92139C0 4.20746 2.20795 1.99951 4.92188 1.99951H19.0781C21.792 1.99951 24 4.20746 24 6.92139V21.0776C24 23.7916 21.792 25.9995 19.0781 25.9995Z" fill="#00C3FF"/>
<path d="M19.0781 1.99951H12V25.9995H19.0781C21.792 25.9995 24 23.7916 24 21.0776V6.92139C24 4.20746 21.792 1.99951 19.0781 1.99951Z" fill="#00AAF0"/>
<path d="M7.38978 20.4924C7.17299 20.8679 6.77825 21.0781 6.37292 21.0781C6.17422 21.0781 5.97303 21.0276 5.78895 20.9214C5.22936 20.5983 5.03694 19.8802 5.36 19.3206L5.59049 18.9214H8.29681L7.38978 20.4924Z" fill="white"/>
<path d="M5.17969 17.9839C4.53352 17.9839 4.00781 17.4582 4.00781 16.812C4.00781 16.1659 4.53352 15.6402 5.17969 15.6402H7.48491L10.6468 10.1636L9.78989 8.67933C9.46683 8.11973 9.6592 7.40161 10.2188 7.0785H10.2188C10.7784 6.75543 11.4966 6.9479 11.8196 7.50745L12 7.81987L12.1804 7.5075C12.5036 6.94786 13.2217 6.75548 13.7812 7.07854C14.0522 7.23506 14.2462 7.48776 14.3272 7.79011C14.4082 8.09245 14.3666 8.40829 14.2101 8.67937L10.1912 15.6402H12.7262L14.0794 17.9839H5.17969Z" fill="white"/>
<path d="M18.8204 17.9838H17.8683L18.64 19.3205C18.9631 19.88 18.7707 20.5981 18.2111 20.9212C18.0305 21.0255 17.8301 21.0788 17.627 21.0788C17.5252 21.0788 17.4228 21.0654 17.3218 21.0383C17.0194 20.9573 16.7667 20.7634 16.6102 20.4923L12.5413 13.4447L13.8944 11.101L16.5151 15.6401H18.8204C19.4665 15.6401 19.9922 16.1658 19.9922 16.812C19.9922 17.4581 19.4665 17.9838 18.8204 17.9838Z" fill="#F2F2F2"/>
<path d="M12 15.6401V17.9839H14.0794L12.7262 15.6401H12Z" fill="#F2F2F2"/>
<path d="M14.3272 7.78997C14.2461 7.48762 14.0522 7.23487 13.7812 7.07841C13.2217 6.75534 12.5035 6.94767 12.1804 7.50736L12 7.81973V12.5072L14.2101 8.67923C14.3666 8.40815 14.4082 8.09236 14.3272 7.78997Z" fill="#F2F2F2"/>
</g>
</g>
<defs>
<clipPath id="clip0_3_1235">
<rect width="111" height="30" fill="white" transform="translate(0 -0.000488281)"/>
</clipPath>
<clipPath id="clip1_3_1235">
<rect width="24" height="24" fill="white" transform="translate(0 1.99951)"/>
</clipPath>
</defs>
</svg>
