<svg width="115" height="28" viewBox="0 0 115 28" fill="none" xmlns="http://www.w3.org/2000/svg">
<path fill-rule="evenodd" clip-rule="evenodd" d="M0.430703 0.368049C0.1572 0.65801 0 1.1043 0 1.68422V22.3118C0 22.8918 0.1572 23.338 0.440927 23.6179L0.515054 23.6797L12.2322 12.1216V11.8619L0.50483 0.306274L0.430703 0.368049V0.368049Z" fill="url(#paint0_linear_3_1197)"/>
<path fill-rule="evenodd" clip-rule="evenodd" d="M16.1302 15.9895L12.2219 12.133V11.8632L16.1315 8.00671L16.2158 8.0584L20.8398 10.6504C22.1639 11.3867 22.1639 12.5995 20.8398 13.3458L16.2158 15.9378C16.2146 15.9378 16.1302 15.9895 16.1302 15.9895V15.9895Z" fill="url(#paint1_linear_3_1197)"/>
<path fill-rule="evenodd" clip-rule="evenodd" d="M16.2146 15.9377L12.2219 11.998L0.430664 23.6293C0.861367 24.0857 1.58602 24.1373 2.3963 23.6911L16.2146 15.9377Z" fill="url(#paint2_linear_3_1197)"/>
<path fill-rule="evenodd" clip-rule="evenodd" d="M16.2146 8.05949L2.3963 0.316253C1.5873 -0.140122 0.861367 -0.0783474 0.430664 0.378027L12.2207 11.9979L16.2146 8.05949V8.05949Z" fill="url(#paint3_linear_3_1197)"/>
<path opacity="0.2" fill-rule="evenodd" clip-rule="evenodd" d="M16.1303 15.8547L2.40656 23.5463C1.63973 23.9812 0.955972 23.951 0.515045 23.5564L0.440918 23.6295L0.515045 23.6913C0.955972 24.0846 1.63973 24.1161 2.40656 23.6812L16.2248 15.9379L16.1303 15.8547V15.8547Z" fill="black"/>
<path opacity="0.12" fill-rule="evenodd" clip-rule="evenodd" d="M20.8386 13.2108L16.12 15.8545L16.2043 15.9377L20.8283 13.3457C21.4904 12.9726 21.8163 12.4859 21.8163 11.998C21.7741 12.4443 21.438 12.8692 20.8386 13.2108V13.2108Z" fill="black"/>
<path opacity="0.25" fill-rule="evenodd" clip-rule="evenodd" d="M2.39634 0.451715L20.8386 10.787C21.438 11.1185 21.7741 11.5535 21.8265 11.9998C21.8265 11.5131 21.5006 11.0252 20.8386 10.6521L2.39634 0.31682C1.07228 -0.429516 0 0.192011 0 1.68468V1.81958C0 0.326906 1.07228 -0.284535 2.39634 0.451715Z" fill="white"/>
<path fill-rule="evenodd" clip-rule="evenodd" d="M92.3082 23.8464H94.1612V11.4255H92.3082V23.8464ZM109.007 15.8997L106.882 21.285H106.819L104.613 15.8997H102.616L105.924 23.4261L104.038 27.6131H105.971L111.069 15.8997H109.007ZM98.492 22.4356C97.8859 22.4356 97.0384 22.1315 97.0384 21.3804C97.0384 20.4225 98.0936 20.0539 99.0047 20.0539C99.8185 20.0539 100.203 20.2308 100.698 20.4692C100.554 21.6208 99.5631 22.4356 98.492 22.4356ZM98.7168 15.6275C97.3744 15.6275 95.9844 16.2196 95.4091 17.5292L97.0545 18.2168C97.4062 17.5292 98.061 17.3056 98.7486 17.3056C99.7074 17.3056 100.682 17.8809 100.698 18.9033V19.0315C100.362 18.8397 99.6428 18.5526 98.7645 18.5526C96.9899 18.5526 95.1846 19.5273 95.1846 21.3485C95.1846 23.0108 96.6392 24.0819 98.2687 24.0819C99.5146 24.0819 100.203 23.5225 100.633 22.8668H100.698V23.8256H102.488V19.0633C102.488 16.8585 100.841 15.6275 98.7168 15.6275ZM87.2589 17.4121H84.622V13.1545H87.2589C88.645 13.1545 89.4319 14.3011 89.4319 15.2828C89.4319 16.2456 88.645 17.4121 87.2589 17.4121ZM87.2108 11.4247H82.7685V23.8465H84.6215V19.1409H87.2108C89.2656 19.1409 91.2855 17.6525 91.2855 15.2828C91.2855 12.9131 89.2656 11.4247 87.2108 11.4247ZM62.9862 22.4376C61.7055 22.4376 60.6334 21.3655 60.6334 19.893C60.6334 18.4036 61.7055 17.3156 62.9862 17.3156C64.2501 17.3156 65.2427 18.4036 65.2427 19.893C65.2427 21.3655 64.2501 22.4376 62.9862 22.4376ZM65.1143 16.5953H65.0507C64.6344 16.0995 63.8336 15.6504 62.8261 15.6504C60.7127 15.6504 58.7752 17.5074 58.7752 19.893C58.7752 22.2617 60.7127 24.1028 62.8261 24.1028C63.8336 24.1028 64.6344 23.6547 65.0507 23.142H65.1143V23.7501C65.1143 25.3677 64.2499 26.2311 62.8579 26.2311C61.7212 26.2311 61.0168 25.4154 60.7286 24.7268L59.1121 25.3995C59.5761 26.5192 60.8081 27.8964 62.8579 27.8964C65.0348 27.8964 66.876 26.6156 66.876 23.4938V15.9067H65.1143V16.5953ZM68.1568 23.8464H70.0129V11.4255H68.1568V23.8464ZM72.7504 19.749C72.7027 18.1155 74.0152 17.2839 74.9591 17.2839C75.6964 17.2839 76.3203 17.6525 76.529 18.1801L72.7504 19.749ZM78.513 18.34C78.1603 17.3961 77.0882 15.6504 74.8953 15.6504C72.7184 15.6504 70.909 17.3633 70.909 19.8771C70.909 22.2458 72.7025 24.1028 75.103 24.1028C77.0395 24.1028 78.1603 22.9185 78.6253 22.2299L77.1846 21.2691C76.7037 21.9736 76.0479 22.4376 75.103 22.4376C74.1591 22.4376 73.4864 22.0054 73.0552 21.1568L78.7047 18.8199L78.513 18.34ZM33.4957 16.948V18.7405H37.785C37.6579 19.749 37.321 20.4852 36.8093 20.9969C36.1844 21.6219 35.2077 22.3104 33.4957 22.3104C30.8538 22.3104 28.7891 20.1812 28.7891 17.5402C28.7891 14.8993 30.8538 12.769 33.4957 12.769C34.9205 12.769 35.9608 13.3294 36.7289 14.0507L37.9937 12.7859C36.9206 11.7615 35.4968 10.9766 33.4957 10.9766C29.8771 10.9766 26.8357 13.9226 26.8357 17.5402C26.8357 21.1569 29.8771 24.1029 33.4957 24.1029C35.4481 24.1029 36.9206 23.462 38.0732 22.2618C39.2575 21.0774 39.6262 19.4121 39.6262 18.0678C39.6262 17.6525 39.5944 17.268 39.5298 16.948H33.4957ZM44.5024 22.4376C43.2226 22.4376 42.1177 21.3814 42.1177 19.8771C42.1177 18.3559 43.2226 17.3156 44.5024 17.3156C45.7831 17.3156 46.888 18.3559 46.888 19.8771C46.888 21.3814 45.7831 22.4376 44.5024 22.4376ZM44.5028 15.6504C42.1658 15.6504 40.2611 17.4279 40.2611 19.8771C40.2611 22.3104 42.1658 24.1028 44.5028 24.1028C46.8407 24.1028 48.7454 22.3104 48.7454 19.8771C48.7454 17.4279 46.8407 15.6504 44.5028 15.6504ZM53.7565 22.4376C52.4757 22.4376 51.3708 21.3814 51.3708 19.8771C51.3708 18.3559 52.4757 17.3156 53.7565 17.3156C55.0372 17.3156 56.1411 18.3559 56.1411 19.8771C56.1411 21.3814 55.0372 22.4376 53.7565 22.4376ZM53.7571 15.6504C51.4201 15.6504 49.5154 17.4279 49.5154 19.8771C49.5154 22.3104 51.4201 24.1028 53.7571 24.1028C56.094 24.1028 57.9987 22.3104 57.9987 19.8771C57.9987 17.4279 56.094 15.6504 53.7571 15.6504Z" fill="#63686B"/>
<path fill-rule="evenodd" clip-rule="evenodd" d="M57.0089 7.08817C57.8803 7.08817 58.6086 6.78711 59.1948 6.18401C59.78 5.58189 60.0731 4.84564 60.0731 3.97426C60.0731 3.10785 59.779 2.3726 59.1908 1.7675C58.6016 1.1624 57.8753 0.860352 57.0089 0.860352C56.1375 0.860352 55.4092 1.16141 54.824 1.76352C54.2378 2.36564 53.9456 3.10288 53.9456 3.97426C53.9456 4.84564 54.2378 5.58189 54.824 6.18401C55.4092 6.78711 56.1375 7.08817 57.0089 7.08817ZM32.432 6.20616C32.9258 5.71135 33.1723 5.04862 33.1723 4.216C33.1723 4.07093 33.1583 3.92189 33.1305 3.7659H30.2422V4.48228H32.4062C32.3625 4.99895 32.1956 5.40036 31.9074 5.68949C31.4623 6.13363 30.9079 6.3552 30.2422 6.3552C29.6142 6.3552 29.0717 6.13561 28.6137 5.69346C28.1556 5.25231 27.9271 4.67901 27.9271 3.97455C27.9271 3.26911 28.1556 2.6968 28.6137 2.25465C29.0717 1.8135 29.6142 1.59292 30.2422 1.59292C30.9357 1.59292 31.4792 1.82939 31.8736 2.30036L32.3983 1.77574C32.1648 1.49853 31.8538 1.27696 31.4653 1.11004C31.0778 0.944106 30.6684 0.860645 30.2422 0.860645C29.3817 0.860645 28.6494 1.15872 28.0483 1.75488C27.4452 2.35202 27.1451 3.09125 27.1451 3.97455C27.1451 4.85686 27.4452 5.59709 28.0483 6.19324C28.6494 6.79039 29.3817 7.08846 30.2422 7.08846C31.1404 7.08846 31.8707 6.79436 32.432 6.20616ZM35.0375 1.72593H37.752V0.993654H34.2715V6.95519H37.752V6.22192H35.0375V4.33212H37.4847V3.61574H35.0375V1.72593ZM40.982 6.95473H40.216V1.72547H38.5507V0.993195H42.6473V1.72547H40.982V6.95473ZM46.3774 6.95496H45.6114V0.993424H46.3774V6.95496ZM49.7751 6.95473H49.0091V1.72547H47.3438V0.993195H51.4404V1.72547H49.7751V6.95473ZM55.3894 5.68539C55.8306 6.13251 56.3701 6.35507 57.009 6.35507C57.6469 6.35507 58.1874 6.13251 58.6285 5.68539C59.0697 5.23828 59.2913 4.66796 59.2913 3.97443C59.2913 3.2809 59.0697 2.70959 58.6285 2.26347C58.1874 1.81635 57.6469 1.5928 57.009 1.5928C56.3701 1.5928 55.8306 1.81635 55.3894 2.26347C54.9493 2.70959 54.7277 3.2809 54.7277 3.97443C54.7277 4.66796 54.9493 5.23828 55.3894 5.68539ZM61.1482 0.993195V6.95473H61.9143V3.24169L61.8805 2.09211H61.9143L64.9447 6.95473H65.7445V0.993195H64.9775V4.48169L65.0113 5.63028H64.9775L62.0802 0.993195H61.1482Z" fill="#63686B"/>
<defs>
<linearGradient id="paint0_linear_3_1197" x1="11.1732" y1="1.46896" x2="-7.54238" y2="6.52197" gradientUnits="userSpaceOnUse">
<stop stop-color="#00A0FF"/>
<stop offset="0.007" stop-color="#00A1FF"/>
<stop offset="0.26" stop-color="#00BEFF"/>
<stop offset="0.512" stop-color="#00D2FF"/>
<stop offset="0.76" stop-color="#00DFFF"/>
<stop offset="1" stop-color="#00E3FF"/>
</linearGradient>
<linearGradient id="paint1_linear_3_1197" x1="22.5627" y1="11.9948" x2="-0.321963" y2="11.9948" gradientUnits="userSpaceOnUse">
<stop stop-color="#FFE000"/>
<stop offset="0.409" stop-color="#FFBD00"/>
<stop offset="0.775" stop-color="#FFA500"/>
<stop offset="1" stop-color="#FF9C00"/>
</linearGradient>
<linearGradient id="paint2_linear_3_1197" x1="14.0454" y1="14.1376" x2="-0.734233" y2="39.3264" gradientUnits="userSpaceOnUse">
<stop stop-color="#FF3A44"/>
<stop offset="1" stop-color="#C31162"/>
</linearGradient>
<linearGradient id="paint3_linear_3_1197" x1="-2.54019" y1="-6.50179" x2="4.05479" y2="4.73952" gradientUnits="userSpaceOnUse">
<stop stop-color="#32A071"/>
<stop offset="0.069" stop-color="#2DA771"/>
<stop offset="0.476" stop-color="#15CF74"/>
<stop offset="0.801" stop-color="#06E775"/>
<stop offset="1" stop-color="#00F076"/>
</linearGradient>
</defs>
</svg>
