<svg width="12" height="12" viewBox="0 0 12 12" fill="none" xmlns="http://www.w3.org/2000/svg">
<path fill-rule="evenodd" clip-rule="evenodd" d="M5.00454 0C7.76396 0 10.0091 2.24514 10.0091 5.00456C10.0091 6.10688 9.64651 7.12371 9.0403 7.95153L11.7746 10.6858C12.0752 10.9864 12.0752 11.4739 11.7746 11.7745C11.4739 12.0752 10.9865 12.0752 10.6859 11.7745L7.95163 9.04028C7.12381 9.64648 6.10688 10.0091 5.00456 10.0091C2.24514 10.0091 0 7.76398 0 5.00456C0 2.24514 2.24512 0 5.00454 0ZM1.53988 5.00455C1.53988 6.9151 3.09402 8.46924 5.00457 8.46924C6.91509 8.46924 8.46926 6.9151 8.46926 5.00455C8.46926 3.09401 6.91512 1.53987 5.00457 1.53987C3.09402 1.53987 1.53988 3.09401 1.53988 5.00455Z" fill="white"/>
</svg>
