<svg width="220" height="40" viewBox="0 0 220 40" fill="none" xmlns="http://www.w3.org/2000/svg">
<rect x="0.5" y="0.5" width="39" height="39" rx="19.5" stroke="#E0E5E8"/>
<g clip-path="url(#clip0_3_542)">
<path d="M27.3765 15.3415C26.7989 14.6549 25.7326 14.3749 23.6962 14.3749H16.3039C14.2209 14.3749 13.1365 14.673 12.5611 15.4039C12.0001 16.1166 12.0001 17.1667 12.0001 18.62V21.39C12.0001 24.2055 12.6657 25.6351 16.3039 25.6351H23.6962C25.4622 25.6351 26.4408 25.3879 27.0739 24.7821C27.7231 24.1607 28.0001 23.1463 28.0001 21.39V18.62C28.0001 17.0873 27.9567 16.0311 27.3765 15.3415ZM22.2722 20.3874L18.9154 22.1418C18.8403 22.181 18.7583 22.2005 18.6763 22.2005C18.5835 22.2005 18.4909 22.1755 18.4089 22.1258C18.2545 22.0323 18.1602 21.8649 18.1602 21.6843V18.1869C18.1602 18.0066 18.2542 17.8394 18.4083 17.7458C18.5625 17.6521 18.7542 17.6457 18.9142 17.7288L22.271 19.4719C22.4418 19.5606 22.549 19.7369 22.5493 19.9293C22.5495 20.1218 22.4427 20.2983 22.2722 20.3874Z" fill="#4079FF"/>
</g>
<rect x="60.5" y="0.5" width="39" height="39" rx="19.5" stroke="#E0E5E8"/>
<g clip-path="url(#clip1_3_542)">
<path d="M87.996 28.0017V28.001H88V22.133C88 19.2624 87.382 17.051 84.026 17.051C82.4126 17.051 81.33 17.9364 80.888 18.7757H80.8413V17.319H77.6593V28.001H80.9726V22.7117C80.9726 21.319 81.2366 19.9724 82.9613 19.9724C84.6606 19.9724 84.686 21.5617 84.686 22.801V28.0017H87.996Z" fill="#4079FF"/>
<path d="M72.2638 17.3193H75.5811V28.0013H72.2638V17.3193Z" fill="#4079FF"/>
<path d="M73.9215 12.002C72.8608 12.002 72.0001 12.8626 72.0001 13.9233C72.0001 14.984 72.8608 15.8626 73.9215 15.8626C74.9821 15.8626 75.8428 14.984 75.8428 13.9233C75.8421 12.8626 74.9815 12.002 73.9215 12.002V12.002Z" fill="#4079FF"/>
</g>
<rect x="120.5" y="0.5" width="39" height="39" rx="19.5" stroke="#E0E5E8"/>
<g clip-path="url(#clip2_3_542)">
<path d="M147.984 16.706C147.947 15.8559 147.809 15.2714 147.613 14.7649C147.409 14.2274 147.097 13.7461 146.687 13.346C146.287 12.9396 145.803 12.6239 145.271 12.4239C144.762 12.227 144.181 12.0895 143.33 12.052C142.474 12.0114 142.202 12.002 140.03 12.002C137.857 12.002 137.586 12.0114 136.732 12.0488C135.882 12.0863 135.298 12.2239 134.791 12.4207C134.254 12.6239 133.772 12.9365 133.372 13.346C132.966 13.7461 132.65 14.2305 132.45 14.7619C132.253 15.2714 132.116 15.8527 132.078 16.7028C132.038 17.5593 132.028 17.8312 132.028 20.0035C132.028 22.1758 132.038 22.4477 132.075 23.301C132.113 24.1512 132.25 24.7356 132.447 25.2421C132.65 25.7797 132.966 26.261 133.372 26.6611C133.772 27.0674 134.257 27.3831 134.788 27.5831C135.298 27.7801 135.879 27.9175 136.729 27.955C137.582 27.9926 137.854 28.0019 140.027 28.0019C142.199 28.0019 142.471 27.9926 143.324 27.955C144.174 27.9175 144.759 27.7801 145.265 27.5831C146.34 27.1674 147.191 26.3172 147.606 25.2421C147.803 24.7326 147.941 24.1512 147.978 23.301C148.016 22.4477 148.025 22.1758 148.025 20.0035C148.025 17.8312 148.022 17.5593 147.984 16.706ZM146.544 23.2385C146.509 24.0199 146.378 24.4419 146.269 24.7232C146 25.4202 145.446 25.9734 144.749 26.2423C144.468 26.3517 144.043 26.4829 143.265 26.5172C142.421 26.5548 142.168 26.5641 140.033 26.5641C137.898 26.5641 137.642 26.5548 136.801 26.5172C136.02 26.4829 135.598 26.3517 135.316 26.2423C134.969 26.1141 134.654 25.9109 134.397 25.6452C134.132 25.3858 133.929 25.0732 133.8 24.7264C133.691 24.4451 133.56 24.0199 133.525 23.2417C133.488 22.3978 133.479 22.1446 133.479 20.0097C133.479 17.8749 133.488 17.6187 133.525 16.7779C133.56 15.9965 133.691 15.5746 133.8 15.2932C133.929 14.9463 134.132 14.6306 134.401 14.3742C134.66 14.1086 134.972 13.9054 135.319 13.7773C135.601 13.6679 136.026 13.5367 136.804 13.5022C137.648 13.4648 137.901 13.4554 140.036 13.4554C142.174 13.4554 142.427 13.4648 143.268 13.5022C144.049 13.5367 144.471 13.6679 144.753 13.7773C145.099 13.9054 145.415 14.1086 145.671 14.3742C145.937 14.6337 146.14 14.9463 146.269 15.2932C146.378 15.5746 146.509 15.9996 146.544 16.7779C146.581 17.6218 146.59 17.8749 146.59 20.0097C146.59 22.1446 146.581 22.3946 146.544 23.2385Z" fill="#4079FF"/>
<path d="M140.03 15.8937C137.761 15.8937 135.92 17.7346 135.92 20.0039C135.92 22.2731 137.761 24.114 140.03 24.114C142.299 24.114 144.14 22.2731 144.14 20.0039C144.14 17.7346 142.299 15.8937 140.03 15.8937ZM140.03 22.67C138.558 22.67 137.364 21.4761 137.364 20.0039C137.364 18.5316 138.558 17.3377 140.03 17.3377C141.502 17.3377 142.696 18.5316 142.696 20.0039C142.696 21.4761 141.502 22.67 140.03 22.67Z" fill="#4079FF"/>
<path d="M145.263 15.7299C145.263 16.2598 144.833 16.6895 144.303 16.6895C143.773 16.6895 143.343 16.2598 143.343 15.7299C143.343 15.1999 143.773 14.7704 144.303 14.7704C144.833 14.7704 145.263 15.1999 145.263 15.7299Z" fill="#4079FF"/>
</g>
<rect x="180.5" y="0.5" width="39" height="39" rx="19.5" stroke="#E0E5E8"/>
<g clip-path="url(#clip3_3_542)">
<path d="M202.665 14.6586H204.126V12.1146C203.874 12.08 203.007 12.002 201.998 12.002C199.892 12.002 198.449 13.3266 198.449 15.7613V18.002H196.125V20.846H198.449V28.002H201.298V20.8466H203.528L203.882 18.0026H201.298V16.0433C201.298 15.2213 201.52 14.6586 202.665 14.6586Z" fill="#4079FF"/>
</g>
<defs>
<clipPath id="clip0_3_542">
<rect width="16" height="16" fill="white" transform="translate(12.0001 12.002)"/>
</clipPath>
<clipPath id="clip1_3_542">
<rect width="16" height="16" fill="white" transform="translate(72.0001 12.002)"/>
</clipPath>
<clipPath id="clip2_3_542">
<rect width="16" height="16" fill="white" transform="translate(132 12.002)"/>
</clipPath>
<clipPath id="clip3_3_542">
<rect width="16" height="16" fill="white" transform="translate(192 12.002)"/>
</clipPath>
</defs>
</svg>
