<svg width="23" height="23" viewBox="0 0 23 23" fill="none" xmlns="http://www.w3.org/2000/svg">
<path fill-rule="evenodd" clip-rule="evenodd" d="M10.5417 4.86063V2.87496C10.5417 2.34596 10.971 1.91663 11.5 1.91663C12.0281 1.91663 12.4584 2.34596 12.4584 2.87496V4.86063C13.8824 5.06571 15.2136 5.72696 16.2428 6.75621C17.5011 8.0145 18.2084 9.72129 18.2084 11.5V15.1071L18.9837 16.6577C19.3545 17.4004 19.3152 18.2821 18.8782 18.9884C18.4422 19.6947 17.6707 20.125 16.8408 20.125H12.4584C12.4584 20.654 12.0281 21.0833 11.5 21.0833C10.971 21.0833 10.5417 20.654 10.5417 20.125H6.15924C5.32836 20.125 4.55692 19.6947 4.12088 18.9884C3.68388 18.2821 3.64458 17.4004 4.01641 16.6577L4.7917 15.1071V11.5C4.7917 9.72129 5.498 8.0145 6.7563 6.75621C7.78651 5.72696 9.11665 5.06571 10.5417 4.86063V4.86063ZM11.5 6.70829C10.2283 6.70829 9.0103 7.21333 8.11138 8.11225C7.21246 9.01021 6.70836 10.2292 6.70836 11.5V15.3333C6.70836 15.4818 6.67292 15.6285 6.60679 15.7617C6.60679 15.7617 6.18032 16.6146 5.72991 17.5145C5.65612 17.663 5.66379 17.8403 5.75099 17.9812C5.8382 18.122 5.99249 18.2083 6.15924 18.2083H16.8408C17.0066 18.2083 17.1609 18.122 17.2481 17.9812C17.3353 17.8403 17.343 17.663 17.2692 17.5145C16.8188 16.6146 16.3923 15.7617 16.3923 15.7617C16.3262 15.6285 16.2917 15.4818 16.2917 15.3333V11.5C16.2917 10.2292 15.7867 9.01021 14.8877 8.11225C13.9888 7.21333 12.7708 6.70829 11.5 6.70829V6.70829Z" fill="#4079FF"/>
</svg>
